<?xml version="1.0" standalone="no"?><!DOCTYPE svg PUBLIC "-//W3C//DTD SVG 1.1//EN" "http://www.w3.org/Graphics/SVG/1.1/DTD/svg11.dtd"><svg t="1724378447784" class="icon" viewBox="0 0 1024 1024" version="1.1" xmlns="http://www.w3.org/2000/svg" p-id="10884" xmlns:xlink="http://www.w3.org/1999/xlink" width="200" height="200"><path d="M706.112 610.944c0 103.488-87.296 187.264-195.072 187.264s-195.072-83.84-195.072-187.264c0-103.488 87.296-187.328 195.072-187.328s195.072 83.84 195.072 187.328z m241.792 241.024c-24.96 41.472-80.128 55.68-123.392 31.744a84.992 84.992 0 0 1-37.888-109.248l-54.4-30.144c-46.208 70.464-128 117.312-221.184 117.312a263.552 263.552 0 0 1-220.288-116.032l-53.376 29.568c17.856 39.808 2.176 87.04-37.952 109.184-43.136 23.936-98.432 9.792-123.328-31.68-24.896-41.344-10.112-94.336 33.088-118.272a92.8 92.8 0 0 1 117.504 23.168l53.376-29.568a241.472 241.472 0 0 1-30.08-116.992c0-135.04 111.104-245.184 250.368-250.56V300.8c-44.8-5.056-79.552-41.728-79.552-86.08 0-47.808 40.448-86.72 90.24-86.72 49.92 0 90.24 38.784 90.24 86.72 0 44.48-34.688 81.024-79.552 86.08v59.648c139.328 5.312 250.624 115.456 250.624 250.56a241.92 241.92 0 0 1-29.376 115.584l54.464 30.208c26.88-34.816 77.248-45.44 117.376-23.168 43.136 23.936 58.048 76.928 33.088 118.4z m-215.488-151.552c12.544-28.416 18.816-58.496 18.816-89.6 0-31.04-6.272-61.184-18.816-89.6a229.248 229.248 0 0 0-51.392-73.152 238.272 238.272 0 0 0-76.352-49.408 247.04 247.04 0 0 0-93.632-18.112c-32.448 0-63.872 6.016-93.568 18.112A241.216 241.216 0 0 0 341.12 448a229.248 229.248 0 0 0-51.392 73.216 222.4 222.4 0 0 0 0 179.2c12.096 27.392 29.312 52.032 51.392 73.152 22.08 21.184 47.68 37.824 76.352 49.408a247.04 247.04 0 0 0 93.568 18.112c32.512 0 64-6.08 93.632-18.112a241.216 241.216 0 0 0 76.352-49.408c21.952-21.184 39.296-45.824 51.392-73.216z" fill="#616266" p-id="10885"></path></svg>